PathFileType	3	(X/Y/Z)	running_2__view2_aligned.trc
DataRate	CameraRate	NumFrames	NumMarkers	Units	OrigDataRate	OrigDataStartFrame	OrigNumFrames
100.0	100.0	13	19	mm	100.0	198	6434
Frame#	Time	pelvis			neck			head			hip_left			hip_right			knee_left			knee_right			ankle_left			ankle_right			heel_left			heel_right			toe_left			toe_right			shoulder_left			shoulder_right			elbow_left			elbow_right			wrist_left			wrist_right			
		X1	Y1	Z1	X2	Y2	Z2	X3	Y3	Z3	X4	Y4	Z4	X5	Y5	Z5	X6	Y6	Z6	X7	Y7	Z7	X8	Y8	Z8	X9	Y9	Z9	X10	Y10	Z10	X11	Y11	Z11	X12	Y12	Z12	X13	Y13	Z13	X14	Y14	Z14	X15	Y15	Z15	X16	Y16	Z16	X17	Y17	Z17	X18	Y18	Z18	X19	Y19	Z19	
198	1.97000	-26.018288	935.970191	138.490057	-24.990005	1497.967375	216.872788	-25.767414	1584.698513	364.503675	48.606683	938.317101	132.206828	-100.643254	933.623339	144.773288	40.943424	540.531237	293.265565	-153.884462	518.600703	169.747247	6.015801	90.211533	342.663473	-198.735431	337.157720	-233.319010	-3.426411	24.867586	323.126429	-195.117256	359.816885	-293.420569	22.091778	109.013357	564.814616	-211.900060	109.523725	-265.492434	139.182687	1458.034814	153.764340	-194.222364	1459.259917	185.153435	230.120772	1199.240076	117.984482	-338.897001	1223.462474	189.377420	194.435798	1160.017401	339.640910	-337.069007	1317.659610	416.731983
199	1.98000	-27.034877	935.609915	137.542210	-27.309889	1497.045660	216.645316	-28.680867	1584.057477	364.008601	47.536842	937.921415	131.416777	-101.606566	933.298465	143.667648	42.114570	539.061692	287.431706	-152.767381	519.608604	177.020848	7.949625	96.221796	320.986576	-196.452204	329.739302	-213.085637	-1.423220	33.143726	299.822117	-193.115457	349.481307	-272.196635	23.659812	106.947836	537.450946	-209.075115	109.357671	-236.284579	137.543328	1457.135821	155.385145	-196.647114	1457.505680	184.541030	227.683179	1197.024246	121.437416	-336.741592	1219.500987	188.484463	188.237399	1156.309100	342.580895	-330.014160	1309.484047	415.279965
200	1.99000	-28.051465	935.249639	136.594364	-29.629772	1496.123945	216.417843	-31.594320	1583.416442	363.513526	46.467000	937.525729	130.626726	-102.569878	932.973591	142.562008	43.285715	537.592147	281.597847	-151.650300	520.616506	184.294448	9.883448	102.232058	299.309678	-194.168977	322.320884	-192.852263	0.579971	41.419866	276.517805	-191.113657	339.145728	-250.972702	25.227846	104.882316	510.087275	-206.250170	109.191617	-207.076724	135.903968	1456.236829	157.005949	-199.071864	1455.751443	183.928626	225.245585	1194.808417	124.890351	-334.586183	1215.539500	187.591506	182.038999	1152.600798	345.520880	-322.959314	1301.308484	413.827948
201	2.00000	-29.068053	934.889363	135.646517	-31.949655	1495.202230	216.190371	-34.507773	1582.775406	363.018451	45.397159	937.130043	129.836674	-103.533190	932.648717	141.456369	44.456861	536.122603	275.763988	-150.533219	521.624407	191.568048	11.817272	108.242321	277.632781	-191.885749	314.902466	-172.618889	2.583162	49.696006	253.213492	-189.111858	328.810149	-229.748768	26.795880	102.816796	482.723605	-203.425225	109.025563	-177.868869	134.264609	1455.337836	158.626753	-201.496614	1453.997206	183.316222	222.807992	1192.592587	128.343285	-332.430774	1211.578013	186.698549	175.840599	1148.892496	348.460864	-315.904467	1293.132920	412.375930
202	2.01000	-30.084641	934.529087	134.698670	-34.269538	1494.280515	215.962898	-37.421226	1582.134370	362.523377	44.327317	936.734356	129.046623	-104.496502	932.323843	140.350729	45.628006	534.653058	269.930129	-149.416138	522.632309	198.841649	13.751096	114.252584	255.955883	-189.602522	307.484049	-152.385516	4.586352	57.972146	229.909180	-187.110058	318.474571	-208.524835	28.363914	100.751275	455.359934	-200.600281	108.859508	-148.661014	132.625250	1454.438844	160.247557	-203.921363	1452.242969	182.703818	220.370399	1190.376758	131.796219	-330.275365	1207.616526	185.805592	169.642200	1145.184195	351.400849	-308.849621	1284.957357	410.923913
203	2.02000	-31.101229	934.168811	133.750823	-36.589422	1493.358800	215.735426	-40.334679	1581.493334	362.028302	43.257476	936.338670	128.256572	-105.459814	931.998969	139.245089	46.799151	533.183513	264.096270	-148.299058	523.640211	206.115249	15.684920	120.262846	234.278986	-187.319295	300.065631	-132.152142	6.589543	66.248287	206.604868	-185.108259	308.138992	-187.300901	29.931948	98.685755	427.996263	-197.775336	108.693454	-119.453159	130.985891	1453.539852	161.868362	-206.346113	1450.488732	182.091414	217.932805	1188.160928	135.249154	-328.119957	1203.655039	184.912635	163.443800	1141.475893	354.340833	-301.794774	1276.781794	409.471895
204	2.03000	-32.117818	933.808535	132.802976	-38.909305	1492.437085	215.507954	-43.248132	1580.852299	361.533227	42.187634	935.942984	127.466521	-106.423126	931.674095	138.139449	47.970297	531.713968	258.262412	-147.181977	524.648112	213.388849	17.618744	126.273109	212.602088	-185.036068	292.647213	-111.918769	8.592734	74.524427	183.300556	-183.106460	297.803413	-166.076968	31.499982	96.620234	400.632593	-194.950391	108.527400	-90.245304	129.346531	1452.640859	163.489166	-208.770863	1448.734496	181.479009	215.495212	1185.945099	138.702088	-325.964548	1199.693552	184.019679	157.245400	1137.767591	357.280818	-294.739928	1268.606231	408.019878
205	2.04000	-33.134406	933.448259	131.855129	-41.229188	1491.515370	215.280481	-46.161585	1580.211263	361.038153	41.117793	935.547298	126.676470	-107.386438	931.349221	137.033809	49.141442	530.244423	252.428553	-146.064896	525.656014	220.662450	19.552568	132.283372	190.925191	-182.752840	285.228795	-91.685395	10.595925	82.800567	159.996243	-181.104660	287.467835	-144.853034	33.068017	94.554714	373.268922	-192.125446	108.361346	-61.037449	127.707172	1451.741867	165.109970	-211.195613	1446.980259	180.866605	213.057618	1183.729269	142.155023	-323.809139	1195.732065	183.126722	151.047000	1134.059290	360.220803	-287.685081	1260.430667	406.567860
206	2.05000	-34.150994	933.087983	130.907283	-43.549072	1490.593655	215.053009	-49.075038	1579.570227	360.543078	40.047951	935.151611	125.886419	-108.349750	931.024347	135.928169	50.312588	528.774879	246.594694	-144.947815	526.663915	227.936050	21.486392	138.293634	169.248293	-180.469613	277.810378	-71.452022	12.599116	91.076707	136.691931	-179.102861	277.132256	-123.629101	34.636051	92.489193	345.905251	-189.300501	108.195291	-31.829594	126.067813	1450.842874	166.730774	-213.620362	1445.226022	180.254201	210.620025	1181.513439	145.607957	-321.653730	1191.770578	182.233765	144.848601	1130.350988	363.160787	-280.630235	1252.255104	405.115843
207	2.06000	-35.167582	932.727707	129.959436	-45.868955	1489.671940	214.825536	-51.988491	1578.929191	360.048003	38.978110	934.755925	125.096368	-109.313062	930.699473	134.822529	51.483733	527.305334	240.760835	-143.830734	527.671817	235.209651	23.420216	144.303897	147.571396	-178.186386	270.391960	-51.218648	14.602306	99.352847	113.387619	-177.101062	266.796677	-102.405167	36.204085	90.423673	318.541581	-186.475556	108.029237	-2.621739	124.428454	1449.943882	168.351579	-216.045112	1443.471785	179.641797	208.182432	1179.297610	149.060892	-319.498321	1187.809091	181.340808	138.650201	1126.642686	366.100772	-273.575388	1244.079541	403.663825
208	2.07000	-36.184170	932.367431	129.011589	-48.188838	1488.750224	214.598064	-54.901944	1578.288156	359.552928	37.908269	934.360239	124.306317	-110.276374	930.374599	133.716889	52.654879	525.835789	234.926976	-142.713654	528.679718	242.483251	25.354040	150.314159	125.894498	-175.903158	262.973542	-30.985274	16.605497	107.628987	90.083307	-175.099262	256.461099	-81.181234	37.772119	88.358152	291.177910	-183.650612	107.863183	26.586116	122.789095	1449.044890	169.972383	-218.469862	1441.717548	179.029392	205.744838	1177.081780	152.513826	-317.342912	1183.847604	180.447851	132.451801	1122.934385	369.040756	-266.520541	1235.903978	402.211808
209	2.08000	-36.815813	932.346875	128.335719	-49.771225	1488.301034	214.578742	-56.891924	1578.015251	359.364055	37.238522	934.321552	123.750487	-110.869959	930.372179	132.920974	53.716915	525.009669	230.936323	-141.762216	529.475583	247.272395	27.083965	154.928740	110.508003	-174.029386	257.444469	-16.731526	18.397150	113.891170	73.525210	-173.423453	248.778381	-66.214102	39.208757	87.118092	271.650694	-181.383417	107.614287	47.467301	121.631903	1448.658377	171.075326	-220.158983	1440.648840	178.809088	204.062582	1176.137020	154.104157	-315.654433	1181.161722	179.814992	128.937949	1120.145274	369.420664	-260.943966	1229.823072	401.147045
210	2.09000	-37.447455	932.326320	127.659848	-51.353612	1487.851843	214.559419	-58.881905	1577.742347	359.175182	36.568776	934.282866	123.194656	-111.463543	930.369760	132.125058	54.778951	524.183548	226.945670	-140.810777	530.271449	252.061538	28.813890	159.543320	95.121509	-172.155613	251.915395	-2.477777	20.188802	120.153352	56.967114	-171.747643	241.095663	-51.246971	40.645395	85.878031	252.123478	-179.116222	107.365390	68.348486	120.474712	1448.271865	172.178269	-221.848104	1439.580133	178.588783	202.380325	1175.192259	155.694488	-313.965954	1178.475839	179.182133	125.424098	1117.356163	369.800572	-255.367391	1223.742166	400.082283
